<?xml version="1.0" encoding="UTF-8" standalone="no"?>
<!-- Created with Inkscape (http://www.inkscape.org/) -->

<svg
   width="363.59991"
   height="220.64386"
   viewBox="0 0 363.59991 220.64386"
   version="1.1"
   id="svg1"
   xml:space="preserve"
   inkscape:version="1.3.2 (091e20e, 2023-11-25, custom)"
   sodipodi:docname="kickstar4.svg"
   xmlns:inkscape="http://www.inkscape.org/namespaces/inkscape"
   xmlns:sodipodi="http://sodipodi.sourceforge.net/DTD/sodipodi-0.dtd"
   xmlns="http://www.w3.org/2000/svg"
   xmlns:svg="http://www.w3.org/2000/svg"><sodipodi:namedview
     id="namedview1"
     pagecolor="#ffffff"
     bordercolor="#000000"
     borderopacity="0.25"
     inkscape:showpageshadow="2"
     inkscape:pageopacity="0.0"
     inkscape:pagecheckerboard="0"
     inkscape:deskcolor="#d1d1d1"
     inkscape:document-units="px"
     inkscape:zoom="0.84116244"
     inkscape:cx="855.95833"
     inkscape:cy="419.06293"
     inkscape:window-width="1920"
     inkscape:window-height="974"
     inkscape:window-x="-11"
     inkscape:window-y="-11"
     inkscape:window-maximized="1"
     inkscape:current-layer="layer1" /><defs
     id="defs1" /><g
     inkscape:label="Layer 1"
     inkscape:groupmode="layer"
     id="layer1"
     transform="translate(-669.49567,-300.15741)"><path
       d="m 894.30859,442.11523 3.89453,0.006 c 2.14168,0.003 7.97573,0.32257 12.96485,0.71094 l 9.07226,0.70703 -0.66406,3.95117 c -1.23204,7.33552 -5.76362,23.6654 -8.02344,28.91211 -1.23464,2.86653 -2.88046,5.13077 -3.65625,5.03125 -0.77579,-0.0995 -6.18371,-0.47085 -12.01757,-0.82422 -5.83387,-0.35336 -10.90207,-0.93526 -11.26172,-1.29492 -0.35967,-0.35965 0.53613,-3.81522 1.98828,-7.67968 1.45215,-3.86448 3.77912,-12.08777 5.17187,-18.27344 z"
       style="fill:#ff0000;stroke-width:0.911377"
       id="path9"
       inkscape:export-filename="path10.svg"
       inkscape:export-xdpi="96"
       inkscape:export-ydpi="96" /><path
       d="m 896.94922,394.01758 c 0.4872,0.20115 6.41147,2.32266 13.16601,4.71289 11.66914,4.12936 12.28125,4.49825 12.28125,7.40625 0,3.63214 0.35364,3.62132 -9.32812,0.28515 -16.90852,-5.8264 -17.00586,-5.88149 -17.00586,-9.47656 0,-1.81082 0.39951,-3.1289 0.88672,-2.92773 z"
       style="fill:#ff0000;stroke-width:0.911377"
       id="path8" /><path
       d="m 953.20312,411.5293 c -1.20401,-0.10973 -1.24544,0.52641 -0.99414,2.69922 0.34895,3.01707 0.7027,3.18505 10.78516,5.125 23.67847,4.55592 22.01164,4.01505 23.54102,7.65234 3.52087,8.37369 -2.69274,11.87807 -27.25586,15.375 l -9.7461,1.38867 -2.55273,12.61328 c -1.4033,6.93764 -3.55658,15.52756 -4.78711,19.08985 l -2.23828,6.47656 12.34179,-0.69336 c 6.7884,-0.38274 16.46677,-1.69789 21.50782,-2.92188 19.09895,-4.63732 34.58661,-12.71296 46.31641,-24.15039 12.6709,-12.35508 16.3445,-23.51649 9.7656,-29.66211 -4.6311,-4.32609 -8.2179,-5.16117 -25.2812,-5.88281 -12.63902,-0.53453 -39.42789,-4.1837 -49.77738,-6.78125 -0.69173,-0.17361 -1.22365,-0.29156 -1.625,-0.32812 z"
       style="fill:#ff0000;stroke-width:0.911377"
       id="path7" /><path
       d="m 953.20312,411.5293 c 0.40135,0.0366 0.93327,0.15451 1.625,0.32812 10.34949,2.59755 37.13836,6.24672 49.77738,6.78125 17.0633,0.72164 20.6501,1.55672 25.2812,5.88281 6.5789,6.14562 2.9053,17.30703 -9.7656,29.66211 -11.7298,11.43743 -27.21746,19.51307 -46.31641,24.15039 -5.04105,1.22399 -14.71942,2.53914 -21.50782,2.92188 l -12.34179,0.69336 2.23828,-6.47656 c 1.23053,-3.56229 3.38381,-12.15221 4.78711,-19.08985 l 2.55273,-12.61328 9.7461,-1.38867 c 24.56312,-3.49693 30.77673,-7.00131 27.25586,-15.375 -1.52938,-3.63729 0.13745,-3.09642 -23.54102,-7.65234 -10.08246,-1.93995 -10.43621,-2.10793 -10.78516,-5.125 -0.2513,-2.17281 -0.20987,-2.80895 0.99414,-2.69922 z"
       style="fill:#ff0000;stroke-width:0.911377"
       id="path6" /><path
       d="m 846.87109,315.40625 c -4.74098,0.26152 -9.40011,2.26707 -13.63281,6.08008 l -4.65625,4.19531 5.37891,-1.58008 c 7.36608,-2.16464 12.59786,-0.62771 19.35351,5.69141 16.59128,15.51919 26.67041,57.91005 23.08985,97.10547 -2.76705,30.29025 -11.32508,53.35124 -24.07618,64.87109 -6.98148,6.30735 -12.95267,7.2299 -22.64843,3.50391 -4.45763,-1.71302 2.89457,4.87195 8.63086,7.73047 7.01479,3.4956 11.97742,3.47578 19.12109,-0.084 13.50803,-6.73133 24.63691,-27.50393 30.59375,-57.10351 2.82841,-14.05441 2.84161,-56.03184 0.0215,-70.08399 -4.20118,-20.93387 -10.32749,-36.72736 -18.38867,-47.4043 -6.75663,-8.94912 -14.88548,-13.35775 -22.78711,-12.92187 z"
       style="fill:#ff0000;stroke-width:0.911377"
       id="path5" /><path
       d="m 675.58398,428.94727 c -0.55254,0 -2.10046,2.83859 -3.4375,6.30859 -3.68672,9.56817 -3.5111,22.08626 0.42188,30.125 5.6034,11.45291 17.46274,19.91854 32.80273,23.41211 11.26388,2.56526 33.38146,1.41432 50.79297,-2.64453 26.79662,-6.24663 57.98976,-9.19446 85.78906,-8.10547 l 14.4668,0.56445 2.17383,-3.57031 c 2.92515,-4.81003 8.92436,-23.13574 9.68945,-29.5957 l 0.61719,-5.21094 -21.80469,-0.59375 c -33.61377,-0.91465 -62.55064,1.48377 -89.83398,7.44531 -17.45545,3.81409 -25.21021,4.89105 -35.11133,4.87891 -20.39532,-0.025 -35.13573,-6.49587 -42.93555,-18.85157 -1.44469,-2.28857 -3.07831,-4.1621 -3.63086,-4.1621 z"
       style="fill:#ff0000;stroke-width:0.911377"
       id="path3" /><path
       d="m 799.82031,322.53711 c -0.47513,0.012 -2.34582,2.53387 -4.15625,5.60547 -8.52605,14.46533 -27.74838,26.06384 -46.17383,27.85937 -9.86127,0.96097 -19.50094,-0.81495 -30.96484,-5.70703 -5.01119,-2.13847 -9.4251,-3.57684 -9.80664,-3.19531 -0.38154,0.38154 -2.79065,5.74598 -5.35352,11.91992 l -4.6582,11.22656 2.66016,2.22852 c 6.67418,5.59062 29.34328,11.52909 43.69336,11.44726 22.79106,-0.12994 45.47484,-9.85365 63.04297,-27.02734 l 8.18164,-8 3.95312,3.30664 c 12.67785,10.60448 46.96385,35.05078 49.1582,35.05078 0.18268,0 0.33204,-1.40232 0.33204,-3.11718 0,-2.72926 -1.26622,-3.9359 -10.1504,-9.66602 -15.2657,-9.84606 -30.61793,-22.70108 -45.51367,-38.11133 -7.35954,-7.61375 -13.76899,-13.83228 -14.24414,-13.82031 z"
       style="fill:#ff0000;stroke-width:0.911377"
       id="path2" /><path
       d="m 894.58594,300.16992 c -5.64999,0.18661 -11.46712,2.46186 -17.27344,7.06055 -5.05985,4.00748 -5.66254,6.17383 -1.05469,3.79101 4.59558,-2.37647 12.74106,-2.09961 18.36133,0.6211 13.77756,6.66961 26.26528,31.82705 31.81055,64.08984 2.63042,15.304 2.67724,55.01281 0.084,69.6875 -5.76795,32.64015 -18.34146,57.14537 -32.81055,63.93945 -4.9449,2.32192 -13.58227,2.42322 -17.82812,0.20899 -4.94764,-2.58022 -4.57454,-1.15746 0.91211,3.47851 10.12013,8.55104 20.91302,10.07804 30.70117,4.3418 24.57364,-14.40111 40.4686,-66.61566 36.84375,-121.03711 -3.90152,-58.57492 -25.26286,-96.99031 -49.74609,-96.18164 z"
       style="fill:#ff0000;stroke-width:0.911377"
       id="path1" /><path
       sodipodi:type="star"
       style="opacity:1;fill:#ff0000;stroke:none;stroke-width:0;stroke-linecap:square;stroke-linejoin:bevel;stroke-miterlimit:4.9;stroke-dasharray:none;paint-order:fill markers stroke"
       id="path18"
       inkscape:flatsided="false"
       sodipodi:sides="5"
       sodipodi:cx="738.07355"
       sodipodi:cy="186.61996"
       sodipodi:r1="47.346603"
       sodipodi:r2="18.938641"
       sodipodi:arg1="0.95570675"
       sodipodi:arg2="1.5840253"
       inkscape:rounded="-2.4286129e-17"
       inkscape:randomized="0"
       d="m 765.39404,225.28897 -27.57102,-19.73202 -28.08338,18.99572 10.24635,-32.31913 -26.74425,-20.83887 33.90361,-0.24231 11.55453,-31.87486 10.70723,32.16938 33.88534,1.13913 -27.28618,20.12407 z"
       inkscape:transform-center-x="-0.11888794"
       inkscape:transform-center-y="-2.8169848"
       transform="matrix(0.61413716,0,0,0.64956603,344.41394,285.83014)" /></g></svg>
